<svg xmlns="http://www.w3.org/2000/svg" fill-rule="evenodd" stroke-linecap="round"
    stroke-miterlimit="3" clip-rule="evenodd" viewBox="0 0 1500 1500">
    <rect width="1500" height="1500" fill="none"></rect>
    <path fill="#e5ecef"
        d="M289.825,1274.42C292.508,1292.14 300.785,1308.68 313.616,1321.51C329.459,1337.35 350.946,1346.25 373.351,1346.25L1129.12,1346.25C1151.53,1346.25 1173.02,1337.35 1188.86,1321.51C1201.69,1308.68 1209.97,1292.14 1212.65,1274.42L1300.95,1274.42C1347.61,1274.42 1385.43,1236.6 1385.43,1189.94L1385.43,1189.94C1385.43,1143.28 1347.61,1105.46 1300.95,1105.46L201.524,1105.46C154.868,1105.46 117.046,1143.28 117.046,1189.94L117.046,1189.94C117.046,1236.6 154.868,1274.42 201.524,1274.42L289.825,1274.42Z"
        class="colore5ecef svgShape"></path>
    <path fill="none" stroke="#72a3b8" stroke-width="4.21"
        d="M289.825,1274.42C292.508,1292.14 300.785,1308.68 313.616,1321.51C329.459,1337.35 350.946,1346.25 373.351,1346.25L1129.12,1346.25C1151.53,1346.25 1173.02,1337.35 1188.86,1321.51C1201.69,1308.68 1209.97,1292.14 1212.65,1274.42L1300.95,1274.42C1347.61,1274.42 1385.43,1236.6 1385.43,1189.94L1385.43,1189.94C1385.43,1143.28 1347.61,1105.46 1300.95,1105.46L201.524,1105.46C154.868,1105.46 117.046,1143.28 117.046,1189.94L117.046,1189.94C117.046,1236.6 154.868,1274.42 201.524,1274.42L289.825,1274.42Z"
        transform="translate(68.224 10.296) scale(.95076)" class="colorStroke72a3b8 svgStroke"></path>
    <g transform="rotate(3.113 1493.384 1676.463) scale(.92842)" fill="#000000"
        class="color000 svgShape">
        <g transform="translate(136.367 237.052) scale(.81818)" fill="#000000"
            class="color000 svgShape">
            <path fill="#39917d"
                d="M1197.55,256.759L231.951,256.759C231.951,256.759 188.086,856.003 165.319,1167.04C161.87,1214.15 177.28,1260.63 207.835,1295.3C238.391,1329.96 281.324,1349.67 326.295,1349.67L1103.2,1349.67C1148.17,1349.67 1191.11,1329.96 1221.66,1295.3C1252.22,1260.63 1267.63,1214.15 1264.18,1167.04C1241.41,856.003 1197.55,256.759 1197.55,256.759Z"
                transform="matrix(1 0 0 .95185 152.696 63.726)" class="color39917d svgShape"></path>
            <path fill="#015e5e"
                d="M1145.11,1354.11C1180.45,1354.11 1214.19,1338.63 1238.2,1311.39C1262.21,1284.15 1274.32,1247.62 1271.61,1210.6C1250.08,916.362 1210.29,372.814 1210.29,372.814C1210.2,371.631 1209.67,370.533 1208.81,369.765L1078.33,253.37C1076.55,251.781 1073.88,252.01 1072.36,253.881C1070.85,255.752 1071.07,258.56 1072.85,260.149L1201.98,375.345C1204.53,410.117 1242.37,927.033 1263.17,1211.28C1265.7,1245.83 1254.4,1279.92 1231.99,1305.35C1209.58,1330.77 1178.1,1345.22 1145.11,1345.22C1142.78,1345.22 1140.88,1347.21 1140.88,1349.67C1140.88,1352.12 1142.78,1354.11 1145.11,1354.11Z"
                transform="matrix(1 0 0 .95185 39.764 63.726)" class="color015e5e svgShape"></path>
            <path fill="#015e5e"
                d="M1103.62,555.375L1177.63,476.848C1178.76,475.643 1178.71,473.743 1177.5,472.607C1176.3,471.472 1174.39,471.528 1173.26,472.733L1099.25,551.259C1098.12,552.464 1098.17,554.365 1099.38,555.5C1100.59,556.636 1102.49,556.58 1103.62,555.375Z"
                transform="translate(-308.151 -361.746) scale(1.41087)" class="color015e5e svgShape"></path>
            <path fill="#48d085"
                d="M1197.55,256.759L231.951,256.759C231.951,256.759 188.086,856.003 165.319,1167.04C161.87,1214.15 177.28,1260.63 207.835,1295.3C238.391,1329.96 281.324,1349.67 326.295,1349.67L1103.2,1349.67C1148.17,1349.67 1191.11,1329.96 1221.66,1295.3C1252.22,1260.63 1267.63,1214.15 1264.18,1167.04C1241.41,856.003 1197.55,256.759 1197.55,256.759Z"
                transform="matrix(1 0 0 .95185 -82.194 63.726)" class="color48d085 svgShape"></path>
            <path fill="#39917d"
                d="M469.172,474.79C471.845,486.58 473.257,498.859 473.257,511.464C473.257,602.388 399.778,676.285 309.009,676.963L324.557,474.79L469.172,474.79Z"
                transform="translate(-308.151 -361.746) scale(1.41087)" class="color39917d svgShape"></path>
            <path fill="#ffffff"
                d="M750,419.125C750,367.221 732.319,325.145 710.508,325.145C585.89,325.145 201.872,325.145 77.254,325.145C55.443,325.145 37.761,367.221 37.761,419.125C37.761,502.903 37.761,624.89 37.761,708.668C37.761,760.572 55.443,802.648 77.254,802.648C201.872,802.648 585.89,802.648 710.508,802.648C732.319,802.648 750,760.572 750,708.668C750,624.89 750,502.903 750,419.125Z"
                transform="matrix(.4273 0 0 .17956 163.134 1128.71)" class="colorfff svgShape"></path>
            <circle cx="473.762" cy="427.302" r="35.144" fill="#005759"
                transform="translate(-132.809 -80.416) scale(1.18819)" class="color005759 svgShape"></circle>
            <circle cx="473.762" cy="427.302" r="35.144" fill="#005759"
                transform="translate(269.38 -80.416) scale(1.18819)" class="color005759 svgShape"></circle>
            <path fill="#39917d"
                d="M399.948,355.515C399.948,355.515 400.503,523.102 401.019,678.76C401.274,755.725 429.747,830.246 479.975,885.401C530.202,940.556 597.921,971.666 667.755,971.666C667.755,971.666 667.758,971.666 667.758,971.666C775.093,971.666 860.319,877.392 859.927,759.096C859.36,587.662 858.596,357.157 858.596,357.157C858.54,339.993 845.844,325.691 830.264,325.237C814.683,324.784 802.08,338.351 802.137,355.515C802.137,355.515 802.9,586.02 803.468,757.454C803.748,842.039 742.809,909.447 666.061,909.447L666.059,909.447C611.451,909.447 558.497,885.12 519.22,841.99C479.944,798.86 457.678,740.587 457.478,680.402C456.963,524.744 456.408,357.157 456.408,357.157C456.351,339.993 443.656,325.691 428.075,325.237C412.495,324.784 399.891,338.351 399.948,355.515Z"
                transform="matrix(1 0 -.02726 .90703 11.649 104.095)" class="color39917d svgShape"></path>
            <path fill="#ffffff"
                d="M401.73,423.948L401.73,716.828C401.73,781.774 427.071,846.652 471.428,895.271C515.786,943.891 574.977,971.666 634.23,971.666L634.231,971.666C763.064,971.666 860.684,864.667 860.684,723.456L860.684,430.656C860.684,413.586 847.966,398.225 832.301,396.374C816.636,394.523 803.918,406.878 803.918,423.948L803.918,716.748C803.918,826.377 728.13,909.447 628.111,909.447L628.11,909.447C584.883,909.447 541.702,889.184 509.342,853.715C476.982,818.246 458.496,770.916 458.496,723.536L458.496,430.656C458.496,413.586 445.778,398.225 430.113,396.374C414.448,394.523 401.73,406.878 401.73,423.948Z"
                transform="matrix(1 0 -.09836 .90703 42.03 39.727)" class="colorfff svgShape"></path>
        </g>
        <path fill="#ffc039"
            d="M676.605,419.894L676.605,197.5C676.605,186.506 685.531,177.58 696.525,177.58C707.519,177.58 716.445,186.506 716.445,197.5L716.445,419.894C716.445,430.888 707.519,439.814 696.525,439.814C685.531,439.814 676.605,430.888 676.605,419.894Z"
            transform="matrix(-1.15896 0 0 1.15896 1557.25 -69.176)" class="colorffc039 svgShape"></path>
        <path fill="#ffc039"
            d="M715.269,413.151L675.269,301.954C671.548,291.609 660.127,286.231 649.782,289.953C639.437,293.674 634.059,305.094 637.781,315.44L677.781,426.637C681.502,436.982 692.922,442.36 703.268,438.638C713.613,434.917 718.991,423.496 715.269,413.151Z"
            transform="translate(-234.72 -69.176) scale(1.15896)" class="colorffc039 svgShape"></path>
        <path fill="#ffc039"
            d="M677.781,426.637L637.781,315.44C634.059,305.094 639.437,293.674 649.782,289.953C660.127,286.231 671.548,291.609 675.269,301.954L715.269,413.151C718.991,423.496 713.613,434.917 703.268,438.638C692.922,442.36 681.502,436.982 677.781,426.637Z"
            transform="matrix(-1.15896 0 0 1.15896 1734.72 -69.176)" class="colorffc039 svgShape"></path>
    </g>
    <g transform="translate(-52.55 -96.548) scale(1.07172)" fill="#000000" class="color000 svgShape">
        <circle cx="333.754" cy="491.03" r="144.897" fill="#fc743e"
            transform="translate(-45.619 -54.366) scale(1.05878)" class="colorfc743e svgShape"></circle>
        <text x="248.023" y="476.486" fill="#fff"
            font-family="'RoundedMplus1c-Bold','Rounded Mplus 1c Bold',sans-serif" font-size="12"
            font-weight="700" transform="translate(-4416.25 -8389.39) scale(18.7562)">0</text>
    </g>
</svg>